<svg xmlns="http://www.w3.org/2000/svg" width="95.747" height="29.389" viewBox="0 0 95.747 29.389"><defs><style>.a{fill:#0071bc;}</style></defs><path class="a" d="M136.912,385.3a9.348,9.348,0,0,1-18.115,0h.039s2.061,2.177-.039,0a2.885,2.885,0,0,0,2.255.933,2.832,2.832,0,0,0,2.255-.933,3.238,3.238,0,0,0,4.548,0,2.884,2.884,0,0,0,2.255.933,2.831,2.831,0,0,0,2.255-.933,3.238,3.238,0,0,0,4.548,0Z" transform="translate(-113.122 -374.028)"/><path class="a" d="M136.554,341.022a9.155,9.155,0,1,0-18.31,0h8.241a2.611,2.611,0,0,1-1.71-2.449,2.663,2.663,0,0,1,5.326,0,2.705,2.705,0,0,1-1.594,2.449Z" transform="translate(-112.685 -331.848)"/><path class="a" d="M164.51,415.924c.155-7.775,6.259-14.5,14.111-14.772a14.956,14.956,0,0,1-14.111,14.772Z" transform="translate(-149.194 -386.535)"/><path class="a" d="M106.037,415.924a14.964,14.964,0,0,0-14.15-14.772,14.99,14.99,0,0,0,14.15,14.772Z" transform="translate(-91.887 -386.535)"/><path class="a" d="M262.5,334.98H243.953v28.067H262.5v-4.315H249.784v-7.581H262.5v-4.432H249.784v-7.386H262.5V334.98Z" transform="translate(-211.882 -334.32)"/><path class="a" d="M344.176,346.721h5.715a3.733,3.733,0,0,0,0-7.386h-5.326v23.713H338.7V334.981h13.14c4.259,0,7.384,3.749,7.425,8.008.041,4.3-3.121,8.164-7.425,8.164h-7.659v-4.432Z" transform="translate(-286.642 -334.32)"/><path class="a" d="M407.816,363.048h6.259l2.721-7.386h11.429l-1.711-4.626h-8.086l3.965-10.69,8.28,22.7h6.259l-11.2-28.067h-7.114l-10.807,28.067Z" transform="translate(-341.185 -334.32)"/></svg>