<svg xmlns="http://www.w3.org/2000/svg" width="80" height="80" viewBox="0 0 80 80"><defs><style>.a{fill:#fff;}.b{fill:#0056a5;}.c{fill:#3a9430;}.d{fill:#0085cf;}</style></defs><g transform="translate(-1314.631 -346.477)"><g transform="translate(1314.631 346.477)"><circle class="a" cx="39.086" cy="39.086" r="39.086" transform="translate(0.914 0.914)"/><path class="b" d="M1354.631,426.477a39.877,39.877,0,1,1,15.57-3.144A39.749,39.749,0,0,1,1354.631,426.477Zm0-78.173a38.05,38.05,0,1,0,14.858,3A37.932,37.932,0,0,0,1354.631,348.3Z" transform="translate(-1314.631 -346.477)"/></g><g transform="translate(1341.526 365.142)"><g transform="translate(0 13.045)"><path class="b" d="M1782.308,867.112c0,2.405-1.635,4.355-3.651,4.355a3.374,3.374,0,0,0-6.254,0,3.377,3.377,0,0,0-6.275,0,3.374,3.374,0,0,0-6.254,0c-2.014,0-3.647-1.945-3.651-4.346a13.044,13.044,0,0,0,26.088-.008h0Z" transform="translate(-1756.222 -867.112)"/></g><g transform="translate(0 13.043)"><path class="c" d="M1759.871,871.436a3.374,3.374,0,0,1,6.255,0,3.377,3.377,0,0,1,6.275,0,3.374,3.374,0,0,1,6.254,0c2.016,0,3.651-1.95,3.651-4.355v0H1756.22s0,.006,0,.009C1756.224,869.491,1757.857,871.436,1759.871,871.436Z" transform="translate(-1756.22 -867.079)"/></g><g transform="translate(0 0)"><path class="d" d="M1769.264,652.929a13.044,13.044,0,0,0-13.044,13.044h13.044a3.548,3.548,0,1,1,3.548-3.548,3.548,3.548,0,0,1-3.548,3.548h13.044A13.044,13.044,0,0,0,1769.264,652.929Z" transform="translate(-1756.22 -652.929)"/></g></g><g transform="translate(1332.539 400.076)"><g transform="translate(21.378 0)"><path class="c" d="M1983.151,1229.5a20.749,20.749,0,0,0-22.573,1.87,20.749,20.749,0,0,0,22.573-1.87Z" transform="translate(-1960.523 -1226.979)"/><path class="c" d="M1969.578,1233.415a20.8,20.8,0,0,1-9.871-2.491l-.041-.022.037-.029A20.78,20.78,0,0,1,1982.31,1229l.041.022-.037.029a20.675,20.675,0,0,1-12.736,4.364Zm-9.8-2.523a20.683,20.683,0,0,0,22.462-1.86,20.681,20.681,0,0,0-22.462,1.86Z" transform="translate(-1959.667 -1226.509)"/></g><g transform="translate(0 0)"><path class="c" d="M1632.145,1231.366a20.749,20.749,0,0,0-22.573-1.87,20.749,20.749,0,0,0,22.573,1.87Z" transform="translate(-1609.517 -1226.979)"/><path class="c" d="M1621.433,1233.415a20.675,20.675,0,0,1-12.736-4.364l-.037-.029.041-.022a20.743,20.743,0,0,1,22.606,1.872l.037.029-.041.022A20.8,20.8,0,0,1,1621.433,1233.415Zm-12.662-4.383a20.72,20.72,0,0,0,22.462,1.86,20.719,20.719,0,0,0-22.462-1.86Z" transform="translate(-1608.661 -1226.509)"/></g></g><g transform="translate(1353.748 392.184)"><rect class="c" width="1.644" height="16.028" transform="translate(0 0)"/></g><g transform="translate(1332.676 384.249)"><g transform="translate(22.228)"><path class="c" d="M1975.861,986.29l.271-1.242a23.747,23.747,0,0,1,20.032-18.227l1.258-.173-.235,1.248a21.982,21.982,0,0,1-2.484,6.774,22.62,22.62,0,0,1-4.443,5.562,23.228,23.228,0,0,1-13.135,5.921ZM1995.1,968.85a21.934,21.934,0,0,0-16.86,15.3,21.387,21.387,0,0,0,10.785-5.269,20.8,20.8,0,0,0,4.085-5.113A20.2,20.2,0,0,0,1995.1,968.85Z" transform="translate(-1975.861 -966.647)"/></g><g transform="translate(0)"><path class="c" d="M1632.465,986.29l-1.264-.139a23.232,23.232,0,0,1-13.135-5.921,22.624,22.624,0,0,1-4.443-5.562,21.973,21.973,0,0,1-2.484-6.774l-.235-1.248,1.258.173a23.747,23.747,0,0,1,20.032,18.227Zm-19.242-17.439a20.182,20.182,0,0,0,1.989,4.917,20.792,20.792,0,0,0,4.085,5.113,21.387,21.387,0,0,0,10.785,5.269A21.936,21.936,0,0,0,1613.224,968.85Z" transform="translate(-1610.904 -966.647)"/></g></g><g transform="translate(1318.949 350.872)"><g transform="translate(0 0)"><g transform="translate(10.658)"><g transform="translate(0 7.516)"><path class="b" d="M1565.276,544.139a1.943,1.943,0,1,1-2.894,2.576l-1.865-2.1.358-.319.358-.319,2.021,2.271a.981.981,0,1,0,1.461-1.3l-2.021-2.271.358-.319.358-.319Z" transform="translate(-1560.516 -542.043)"/></g><g transform="translate(4.096 4.476)"><path class="b" d="M1631.027,497.663l-.367.238-.367.238-2.528-3.905.561-.363.562-.363,3.321,2.031-1.907-2.946.367-.238.368-.238,2.527,3.905-.553.358-.553.358-3.362-2.056Z" transform="translate(-1627.765 -492.116)"/></g><g transform="translate(8.57 3.441)"><path class="b" d="M1701.222,475.558l.428-.216.428-.216,2.1,4.151-.428.216-.428.217Z" transform="translate(-1701.222 -475.125)"/></g><g transform="translate(10.315 1.593)"><path class="b" d="M1731.459,446.322l-1.32.514-.131-.337-.131-.337,3.533-1.376.131.337.131.337-1.319.514,1.426,3.661-.447.174-.447.174Z" transform="translate(-1729.877 -444.786)"/></g><g transform="translate(14.952 0.535)"><path class="b" d="M1807.134,432.671l-1.117-4.516,2.979-.737.087.351.087.351-2.047.507.276,1.116,1.921-.475.087.351.087.351-1.922.475.32,1.293,2.106-.521.087.351.086.351Z" transform="translate(-1806.017 -427.419)"/></g><g transform="translate(19.214 0.078)"><path class="b" d="M1876,420.121l.477-.05,1.36-.142a2.121,2.121,0,0,1,1.676.445,2.392,2.392,0,0,1,.758,1.64,2.21,2.21,0,0,1-.475,1.791,2.8,2.8,0,0,1-1.859.79l-.976.1-.477.05Zm1.363,3.807.661-.069a1.431,1.431,0,0,0,1.057-.521,1.7,1.7,0,0,0,.25-1.225,1.667,1.667,0,0,0-.513-1.14,1.455,1.455,0,0,0-1.15-.3l-.638.067Z" transform="translate(-1875.996 -419.911)"/></g><g transform="translate(26.518)"><path class="b" d="M1998.713,420.114a.654.654,0,0,0-.153-.513.8.8,0,0,0-.524-.235.847.847,0,0,0-.556.109.519.519,0,0,0-.26.4.431.431,0,0,0,.158.378,2.674,2.674,0,0,0,.681.376l.573.246a1.835,1.835,0,0,1,.788.548,1.092,1.092,0,0,1,.163.781,1.283,1.283,0,0,1-.63.99,2.076,2.076,0,0,1-1.365.261,2.113,2.113,0,0,1-1.346-.544,1.425,1.425,0,0,1-.32-1.189l0-.043.938.1a.776.776,0,0,0,.148.655.957.957,0,0,0,.655.3,1.078,1.078,0,0,0,.662-.112.552.552,0,0,0,.306-.433.363.363,0,0,0-.124-.318,2.047,2.047,0,0,0-.546-.309l-.573-.245a2.465,2.465,0,0,1-.925-.6,1,1,0,0,1-.2-.776,1.359,1.359,0,0,1,.59-1.012,1.789,1.789,0,0,1,1.262-.281,1.98,1.98,0,0,1,1.24.508,1.128,1.128,0,0,1,.312.962l-.014.1Z" transform="translate(-1995.906 -418.631)"/></g><g transform="translate(31.22 0.453)"><path class="b" d="M2074.489,427.1l-1.375-.337.086-.351.086-.351,3.682.9-.086.351-.086.351-1.375-.337-.936,3.815-.466-.114-.466-.114Z" transform="translate(-2073.114 -426.061)"/></g><g transform="translate(33.698 2.049)"><path class="b" d="M2117.093,452.276l.57.222.573.223-.075,4.962-.481-.187-.481-.187.049-1.043-1.839-.716-.662.8-.474-.185-.477-.186Zm-1.195,2.689,1.384.538.1-2.32h0Z" transform="translate(-2113.794 -452.276)"/></g><g transform="translate(39.047 3.287)"><path class="b" d="M2203.519,473.919l-1.242-.68.174-.317.174-.317,3.325,1.822-.174.317-.174.317-1.242-.68-1.887,3.445-.42-.23-.421-.231Z" transform="translate(-2201.631 -472.604)"/></g><g transform="translate(41.17 5.437)"><path class="b" d="M2236.475,511.7l2.676-3.8,2.509,1.765-.208.3-.208.3-1.725-1.213-.661.94,1.619,1.139-.208.3-.208.3-1.619-1.139-.766,1.09,1.775,1.248-.208.3-.208.3Z" transform="translate(-2236.475 -507.898)"/></g><g transform="translate(44.58 8.516)"><path class="b" d="M2296.125,560.511a.656.656,0,0,0,.179-.505.794.794,0,0,0-.285-.5.847.847,0,0,0-.513-.24.517.517,0,0,0-.444.167.431.431,0,0,0-.1.4,2.661,2.661,0,0,0,.328.706l.317.536a1.835,1.835,0,0,1,.313.908,1.09,1.09,0,0,1-.33.727,1.282,1.282,0,0,1-1.093.427,2.078,2.078,0,0,1-1.257-.6,2.115,2.115,0,0,1-.765-1.234,1.427,1.427,0,0,1,.444-1.149l.029-.032.7.637a.774.774,0,0,0-.267.616.956.956,0,0,0,.352.628,1.078,1.078,0,0,0,.6.3.552.552,0,0,0,.5-.169.362.362,0,0,0,.087-.33,2.04,2.04,0,0,0-.259-.571l-.318-.536a2.462,2.462,0,0,1-.392-1.03,1,1,0,0,1,.294-.746,1.36,1.36,0,0,1,1.074-.469,1.789,1.789,0,0,1,1.184.518,1.978,1.978,0,0,1,.7,1.142,1.128,1.128,0,0,1-.316.961l-.072.073Z" transform="translate(-2292.47 -558.454)"/></g></g><g transform="translate(0 19.584)"><g transform="translate(2.614)"><path class="b" d="M1429.767,740.181l4.22,1.957-1.291,2.783-.328-.152-.328-.152.887-1.913-1.043-.484-.833,1.8-.328-.152-.328-.152.833-1.8-1.209-.561-.913,1.968-.328-.152-.328-.152Z" transform="translate(-1428.451 -740.181)"/></g><g transform="translate(0.959 4.201)"><path class="b" d="M1402.132,809.99l.125-.419.125-.419,4.457,1.331-.191.641-.191.641-3.845.611,3.363,1-.125.419-.125.419-4.457-1.331.189-.631.188-.631,3.892-.617Z" transform="translate(-1401.268 -809.151)"/></g><g transform="translate(0.263 9.971)"><path class="b" d="M1394.817,903.893l-.068.518-.068.518-3.743.785v0l3.412,1.73-.062.47-.062.471-4.382-2.351.066-.5.066-.5Z" transform="translate(-1389.843 -903.893)"/></g><g transform="translate(0.02 14.918)"><path class="b" d="M1390.526,985.239l-.012.479-.012.479-4.65-.12.012-.479.012-.479Z" transform="translate(-1385.851 -985.119)"/></g><g transform="translate(0 17.14)"><path class="b" d="M1390.164,1021.607l.038.478.11,1.386a2.154,2.154,0,0,1-.21,1.277,1.033,1.033,0,0,1-.859.507,1,1,0,0,1-.931-.4,1.673,1.673,0,0,1-.265-.539,1.57,1.57,0,0,1-.087.447.721.721,0,0,1-.584.437q-.447.085-.784.172l-.068.019c-.168.046-.306.088-.412.125a2.131,2.131,0,0,0-.293.126l-.04-.506-.04-.507a1.63,1.63,0,0,1,.248-.081q.159-.041.461-.1l.41-.081a1.145,1.145,0,0,0,.591-.234.72.72,0,0,0,.1-.534l-.065-.816-1.882.149-.038-.478-.038-.478Zm-1.958,1.118.047.593a1.51,1.51,0,0,0,.232.774.541.541,0,0,0,.507.235.564.564,0,0,0,.47-.279,1.191,1.191,0,0,0,.115-.7l-.057-.725Z" transform="translate(-1385.527 -1021.607)"/></g><g transform="translate(0.741 21.548)"><path class="b" d="M1398.015,1095.02a3.228,3.228,0,0,1,3.512-.8,2.391,2.391,0,0,1,.711,3.125,3.236,3.236,0,0,1-3.512.8,2.393,2.393,0,0,1-.711-3.125Zm1.08,2.319a2.744,2.744,0,0,0,2.461-.56,1.15,1.15,0,0,0-.4-1.752,2.73,2.73,0,0,0-2.461.559,1.151,1.151,0,0,0,.4,1.752Z" transform="translate(-1397.693 -1093.981)"/></g><g transform="translate(1.78 25.893)"><path class="b" d="M1415.082,1167.841l-.161-.407-.161-.407,4.326-1.711.246.622.246.622-2.644,2.857,3.264-1.291.161.407.161.407-4.326,1.711-.242-.613-.242-.613,2.677-2.892Z" transform="translate(-1414.76 -1165.316)"/></g><g transform="translate(3.861 30.235)"><path class="b" d="M1449.381,1239.78l-.228-.374-.228-.374,3.974-2.418.413.678.414.681-2.651,2.751h0l3.655-1.1.413.678.415.682-3.974,2.418-.227-.374-.228-.374,3.675-2.236h0l-4.285,1.232-.264-.434-.264-.434,3.039-3.223h0Z" transform="translate(-1448.926 -1236.614)"/></g><g transform="translate(7.569 35.313)"><path class="b" d="M1509.794,1323l3.543-3.014,1.988,2.337-.276.234-.276.234-1.366-1.606-.875.745,1.282,1.508-.275.234-.276.234-1.283-1.508-1.015.863,1.406,1.653-.276.234-.275.234Z" transform="translate(-1509.794 -1319.983)"/></g><g transform="translate(10.523 38.213)"><path class="b" d="M1558.953,1371.649l-.327-.291-.327-.291,3.091-3.476.5.444.5.444-1.073,3.742,2.332-2.623.327.291.327.291-3.091,3.476-.492-.438-.492-.438,1.087-3.787Z" transform="translate(-1558.299 -1367.591)"/></g><g transform="translate(15.718 41.235)"><path class="b" d="M1645.764,1418.6l-1.183-.778.2-.3.2-.3,3.167,2.083-.2.3-.2.3-1.183-.779-2.159,3.282-.4-.264-.4-.264Z" transform="translate(-1643.605 -1417.216)"/></g><g transform="translate(18.097 44.026)"><path class="b" d="M1686.245,1463.047l.551.266.553.267-.464,4.941-.465-.224-.465-.224.13-1.036-1.777-.858-.724.75-.458-.221-.461-.223Zm-1.4,2.587,1.337.645.283-2.305h0Z" transform="translate(-1682.666 -1463.047)"/></g><g transform="translate(23.539 45.484)"><path class="b" d="M1772.018,1491.409l1.422-4.429.456.147.457.147-1.2,3.74,1.849.594-.111.344-.11.344Z" transform="translate(-1772.018 -1486.98)"/></g><g transform="translate(29.991 46.973)"><path class="b" d="M1878.484,1511.422l.476.056,1.3.153a1.7,1.7,0,0,1,1.127.508,1.373,1.373,0,0,1,.281,1.111,1.311,1.311,0,0,1-.562,1.013,1.985,1.985,0,0,1-1.328.21l-.676-.08-.208,1.762-.476-.056-.476-.056Zm.7,2.252.522.062a1.141,1.141,0,0,0,.717-.1.625.625,0,0,0,.3-.5.671.671,0,0,0-.15-.554.9.9,0,0,0-.584-.257l-.641-.076Z" transform="translate(-1877.938 -1511.422)"/></g><g transform="translate(34.654 47.354)"><path class="b" d="M1954.513,1517.72l.479-.01,1.39-.028a2.153,2.153,0,0,1,1.262.286,1.033,1.033,0,0,1,.455.888,1,1,0,0,1-.451.906,1.66,1.66,0,0,1-.553.233,1.576,1.576,0,0,1,.441.113.723.723,0,0,1,.4.61q.059.451.125.793l.015.069q.054.256.1.419a2.111,2.111,0,0,0,.108.3l-.508.01-.508.01a1.581,1.581,0,0,1-.066-.252c-.021-.107-.046-.263-.077-.466l-.057-.414a1.143,1.143,0,0,0-.2-.6.719.719,0,0,0-.527-.133l-.818.016.037,1.887-.479.01-.48.01Zm1,2.021.595-.012a1.515,1.515,0,0,0,.787-.186.542.542,0,0,0,.265-.492.563.563,0,0,0-.251-.485,1.188,1.188,0,0,0-.694-.156l-.727.014Z" transform="translate(-1954.513 -1517.682)"/></g><g transform="translate(39.388 46.749)"><path class="b" d="M2033.159,1512.227a3.227,3.227,0,0,1-.629-3.547,2.389,2.389,0,0,1,3.155-.56,3.235,3.235,0,0,1,.629,3.546,2.393,2.393,0,0,1-3.156.56Zm2.368-.968a2.743,2.743,0,0,0-.441-2.485,1.149,1.149,0,0,0-1.769.314,2.731,2.731,0,0,0,.441,2.485,1.151,1.151,0,0,0,1.769-.314Z" transform="translate(-2032.237 -1507.745)"/></g><g transform="translate(43.644 45.215)"><path class="b" d="M2103.686,1484l-1.344.444-.114-.344-.114-.344,3.6-1.188.114.344.113.343-1.344.444,1.231,3.73-.456.151-.455.15Z" transform="translate(-2102.115 -1482.565)"/></g><g transform="translate(48.024 43.517)"><path class="b" d="M2176.071,1460.2l-2.045-4.178,2.756-1.349.159.325.159.325-1.894.927.505,1.032,1.778-.87.159.325.159.325-1.778.87.585,1.2,1.949-.954.159.325.159.325Z" transform="translate(-2174.026 -1454.677)"/></g><g transform="translate(51.942 41.651)"><path class="b" d="M2242.7,1426.057a1.364,1.364,0,0,1,.2,1.257,2.114,2.114,0,0,1-.915,1.171,1.95,1.95,0,0,1-1.638.349,2.676,2.676,0,0,1-1.44-1.2,2.629,2.629,0,0,1-.538-1.805,2.034,2.034,0,0,1,.994-1.4,2,2,0,0,1,1.374-.365,1.331,1.331,0,0,1,1.006.6l.038.058-.786.522a.916.916,0,0,0-.6-.366.988.988,0,0,0-.689.186.966.966,0,0,0-.471.833,2.25,2.25,0,0,0,.454,1.214,2.2,2.2,0,0,0,.948.885,1,1,0,0,0,.964-.122.974.974,0,0,0,.445-.583.93.93,0,0,0-.14-.708Z" transform="translate(-2238.358 -1424.045)"/></g><g transform="translate(54.788 38.379)"><path class="b" d="M2286.627,1372.443l-1.062.936-.239-.271-.239-.271,2.846-2.505.239.271.239.271-1.063.936,2.6,2.948-.36.317-.36.317Z" transform="translate(-2285.087 -1370.33)"/></g><g transform="translate(58.106 37.121)"><path class="b" d="M2339.557,1350.364l.327-.351.327-.351,3.4,3.171-.327.351-.327.351Z" transform="translate(-2339.557 -1349.662)"/></g><g transform="translate(60.099 33.804)"><path class="b" d="M2375.215,1299.936a3.227,3.227,0,0,1-2.894-2.144,2.39,2.39,0,0,1,1.907-2.575,3.236,3.236,0,0,1,2.894,2.144,2.392,2.392,0,0,1-1.908,2.575Zm1.056-2.33a2.743,2.743,0,0,0-2.028-1.5,1.15,1.15,0,0,0-1.07,1.444,2.732,2.732,0,0,0,2.028,1.5,1.152,1.152,0,0,0,1.07-1.444Z" transform="translate(-2372.285 -1295.21)"/></g><g transform="translate(62.369 28.897)"><path class="b" d="M2414.1,1219.467l-.2.388-.2.389-4.129-2.142.308-.594.308-.594,3.891.121-3.115-1.616.2-.388.2-.389,4.129,2.142-.3.585-.3.585-3.939-.123Z" transform="translate(-2409.563 -1214.642)"/></g><g transform="translate(65.586 23.121)"><path class="b" d="M2462.37,1121.479l.155-.591.155-.594,4.938-.5-.13.5-.131.5-1.041.072-.5,1.909.875.566-.128.492-.13.5Zm2.808.877.375-1.437-2.317.167v0Z" transform="translate(-2462.37 -1119.796)"/></g><g transform="translate(66.452 18.066)"><path class="b" d="M2481.428,1038.9a2.5,2.5,0,0,1-.822,1.744,2.417,2.417,0,0,1-1.86.414,2.449,2.449,0,0,1-1.682-.824,2.22,2.22,0,0,1-.455-1.748,2.084,2.084,0,0,1,.559-1.33,1.468,1.468,0,0,1,1.228-.331l-.109.938a.877.877,0,0,0-.677.15,1,1,0,0,0-.283.666,1.208,1.208,0,0,0,.323,1.046,1.962,1.962,0,0,0,1.206.5,1.911,1.911,0,0,0,1.294-.215,1.308,1.308,0,0,0,.551-1,3.306,3.306,0,0,0-.016-.8l-1.02-.118-.1.885-.718-.083.213-1.84,2.308.268A5.578,5.578,0,0,1,2481.428,1038.9Z" transform="translate(-2476.588 -1036.805)"/></g><g transform="translate(66.701 13.769)"><path class="b" d="M2485.409,969.377l-4.65.114-.075-3.067.362-.009.361-.009.052,2.108,1.149-.028-.048-1.979.361-.009.361-.009.049,1.979,1.332-.033-.053-2.169.361-.009.361-.009Z" transform="translate(-2480.684 -966.249)"/></g><g transform="translate(65.985 8.399)"><path class="b" d="M2474.027,881.061l.073.432.074.431-4.586.781-.112-.659-.112-.659,3.177-2.25-3.46.589-.073-.432-.073-.432,4.585-.781.111.649.111.649-3.215,2.277Z" transform="translate(-2468.934 -878.082)"/></g><g transform="translate(64.955 3.658)"><path class="b" d="M2454.61,800.331a1.366,1.366,0,0,1,1.266.139,2.118,2.118,0,0,1,.884,1.2,1.95,1.95,0,0,1-.1,1.672,2.678,2.678,0,0,1-1.545,1.066,2.628,2.628,0,0,1-1.883.037,2.035,2.035,0,0,1-1.085-1.332,2,2,0,0,1,.015-1.422,1.33,1.33,0,0,1,.849-.809l.066-.022.293.9a.916.916,0,0,0-.512.476.989.989,0,0,0,0,.714.965.965,0,0,0,.676.676,2.252,2.252,0,0,0,1.291-.114,2.2,2.2,0,0,0,1.1-.677,1,1,0,0,0,.14-.962.977.977,0,0,0-.443-.585.931.931,0,0,0-.719-.055Z" transform="translate(-2452.023 -800.235)"/></g><g transform="translate(62.614 0.106)"><path class="b" d="M2417.3,743.574l-1.833,2.751-.256-.518-.256-.518,1.384-1.868,0,0-2.311-.014-.224-.453-.224-.453,3.3.211,1.6-.793.212.43.213.43Z" transform="translate(-2413.574 -741.921)"/></g></g></g><g transform="translate(60.701 14.544)"><circle class="b" cx="1.34" cy="1.34" r="1.34"/></g><g transform="translate(7.47 14.788)"><circle class="b" cx="1.34" cy="1.34" r="1.34"/></g></g></g></svg>